<svg width="20" height="20" viewBox="0 0 20 20" fill="none" xmlns="http://www.w3.org/2000/svg">
<path fill-rule="evenodd" clip-rule="evenodd" d="M10.0001 0C7.35816 0 5.20837 2.14979 5.20837 4.79176C5.20837 7.43372 7.35815 9.58333 10.0001 9.58333C12.6421 9.58333 14.7919 7.43372 14.7919 4.79176C14.7919 2.14979 12.6421 0 10.0001 0ZM6.27562 4.79176C6.27562 2.73768 7.94625 1.06724 10.0001 1.06724C12.054 1.06724 13.7246 2.73768 13.7246 4.79176C13.7246 6.84566 12.054 8.51609 10.0001 8.51609C7.94626 8.51609 6.27562 6.84566 6.27562 4.79176Z" fill="#FF7010"/>
<path fill-rule="evenodd" clip-rule="evenodd" d="M5.96381 11.6667C3.59468 11.6667 1.66663 13.6455 1.66663 16.0769V19.4883C1.66663 19.7707 1.89005 20 2.1652 20H17.8347C18.1099 20 18.3333 19.7707 18.3333 19.4883V16.0769C18.3333 13.6455 16.4052 11.6667 14.0361 11.6667H5.96381ZM2.66378 16.0769C2.66378 14.2094 4.14412 12.6901 5.96381 12.6901H14.0361C15.8558 12.6901 17.3361 14.2094 17.3361 16.0769V18.9766H2.66378V16.0769Z" fill="#FF7010"/>
</svg>
