<svg width="20" height="20" viewBox="0 0 20 20" fill="none" xmlns="http://www.w3.org/2000/svg">
<path d="M10 0C15.4999 0 19.9999 4.52503 20 10.0557C20 15.0276 16.3891 19.1619 11.667 20L11.6094 19.9541C11.6284 19.9504 11.648 19.9482 11.667 19.9443V12.8496H13.8887L14.333 10.0557H11.667V8.10059C11.667 7.3185 11.9448 6.7041 13.167 6.7041H14.4443V4.13379C13.7223 4.02209 12.9447 3.91118 12.2227 3.91113C9.94489 3.91113 8.33303 5.30735 8.33301 7.82129V10.0557H5.83301V12.8496H8.33301V19.9443C8.3517 19.9481 8.37096 19.9505 8.38965 19.9541L8.33301 20C3.61094 19.1619 0 15.0276 0 10.0557C0.000102294 4.52503 4.50006 2.61551e-07 10 0Z" fill="#FF7010"/>
</svg>
